<?xml version="1.0" encoding="utf-8"?>
<!-- Generator: Adobe Illustrator 16.0.0, SVG Export Plug-In . SVG Version: 6.00 Build 0)  -->
<!DOCTYPE svg PUBLIC "-//W3C//DTD SVG 1.1//EN" "http://www.w3.org/Graphics/SVG/1.1/DTD/svg11.dtd">
<svg version="1.1" id="logo" xmlns="http://www.w3.org/2000/svg" xmlns:xlink="http://www.w3.org/1999/xlink" x="0px" y="0px"
	 width="661.199px" height="414px" viewBox="0 0 661.199 414" enable-background="new 0 0 661.199 414" xml:space="preserve">
<path id="border" fill="none" stroke="#FFFFFF" stroke-width="14" stroke-miterlimit="10" d="M654.199,387v-26.667
	c-11.046,0-20-8.954-20-20s8.954-20,20-20v-26.666c-11.046,0-20-8.954-20-20s8.954-20,20-20V227c-11.046,0-20-8.954-20-20
	s8.954-20,20-20v-26.667c-11.046,0-20-8.954-20-20s8.954-20,20-20V93.667c-11.046,0-20-8.954-20-20s8.954-20,20-20V27
	c-11.046,0-20-8.954-20-20H27c0,11.046-8.954,20-20,20v26.667c11.046,0,20,8.954,20,20s-8.954,20-20,20v26.667
	c11.046,0,20,8.954,20,20s-8.954,20-20,20V187c11.046,0,20,8.954,20,20s-8.954,20-20,20v26.667c11.046,0,20,8.954,20,20
	s-8.954,20-20,20v26.666c11.046,0,20,8.954,20,20s-8.954,20-20,20V387c11.046,0,20,8.954,20,20h607.199
	C634.199,395.954,643.153,387,654.199,387z"/>
<path id="git_x5F_logo" fill="none" stroke="#FFFFFF" stroke-width="14" stroke-linejoin="round" stroke-miterlimit="10" d="
	M228.25,66.605l-22.914,22.914l32.274,32.274c2.169-0.732,4.491-1.135,6.908-1.135c11.931,0,21.601,9.671,21.601,21.601
	c0,2.418-0.402,4.739-1.135,6.909l36.25,36.25c2.17-0.732,4.492-1.135,6.908-1.135c11.93-0.001,21.602,9.671,21.602,21.601
	c0,11.931-9.67,21.602-21.601,21.602s-21.603-9.671-21.601-21.602c0-2.417,0.402-4.738,1.134-6.909l-33.571-33.571v84.747
	c7.119,3.532,12.016,10.872,12.014,19.358c0,11.929-9.67,21.601-21.6,21.601c-11.931,0-21.603-9.672-21.603-21.602
	c0-8.485,4.896-15.825,12.015-19.357l0-88.534c-7.119-3.533-12.015-10.871-12.015-19.358c0-2.417,0.403-4.739,1.136-6.908
	l-32.274-32.274l-87.655,87.655c-8.948,8.948-8.948,23.59,0,32.537L228.25,347.396c8.948,8.948,23.59,8.948,32.538,0
	l124.127-124.127c8.948-8.947,8.948-23.589,0-32.537L260.787,66.605C251.84,57.656,237.197,57.656,228.25,66.605z"/>
<g id="details">
	<g>
		
			<line fill="none" stroke="#FFFFFF" stroke-width="14" stroke-linecap="round" stroke-miterlimit="10" x1="456.044" y1="59.894" x2="474.945" y2="40.992"/>
		
			<line fill="none" stroke="#FFFFFF" stroke-width="14" stroke-linecap="round" stroke-miterlimit="10" x1="456.044" y1="115.229" x2="530.281" y2="40.992"/>
		
			<line fill="none" stroke="#FFFFFF" stroke-width="14" stroke-linecap="round" stroke-miterlimit="10" x1="456.044" y1="170.565" x2="585.617" y2="40.992"/>
		
			<line fill="none" stroke="#FFFFFF" stroke-width="14" stroke-linecap="round" stroke-miterlimit="10" x1="456.044" y1="225.901" x2="604.519" y2="77.426"/>
		
			<line fill="none" stroke="#FFFFFF" stroke-width="14" stroke-linecap="round" stroke-miterlimit="10" x1="456.044" y1="281.237" x2="604.519" y2="132.762"/>
		
			<line fill="none" stroke="#FFFFFF" stroke-width="14" stroke-linecap="round" stroke-miterlimit="10" x1="456.044" y1="336.573" x2="604.519" y2="188.098"/>
		
			<line fill="none" stroke="#FFFFFF" stroke-width="14" stroke-linecap="round" stroke-miterlimit="10" x1="474.946" y1="373.007" x2="604.519" y2="243.434"/>
		
			<line fill="none" stroke="#FFFFFF" stroke-width="14" stroke-linecap="round" stroke-miterlimit="10" x1="530.281" y1="373.007" x2="604.519" y2="298.77"/>
		
			<line fill="none" stroke="#FFFFFF" stroke-width="14" stroke-linecap="round" stroke-miterlimit="10" x1="585.617" y1="373.007" x2="604.519" y2="354.105"/>
	</g>
</g>
</svg>
